<?xml version="1.0" encoding="utf-8"?>
<!-- Generator: Adobe Illustrator 27.4.0, SVG Export Plug-In . SVG Version: 6.00 Build 0)  -->
<svg version="1.1" id="Layer_1" xmlns="http://www.w3.org/2000/svg" xmlns:xlink="http://www.w3.org/1999/xlink" x="0px" y="0px"
	 viewBox="0 0 800 800" style="enable-background:new 0 0 800 800;" xml:space="preserve">
<style type="text/css">
	.st0{fill:none;}
</style>
<path d="M711.1,88.9v622.2H88.9V88.9H711.1 M711.1,0H88.9C39.8,0,0,39.8,0,88.9v622.2C0,760.2,39.8,800,88.9,800h622.2
	c49.1,0,88.9-39.8,88.9-88.9V88.9C800,39.8,760.2,0,711.1,0z"/>
<g>
	<path d="M413.3,585.8L388,502.7H260.4l-25.3,83.1h-79.6l123.1-350.7h88.9l123.6,350.7H413.3z M368.9,440.4
		c-23.6-75.1-36.4-117.8-39.6-127.6c-3.1-9.8-4.9-17.8-6.2-23.6c-5.3,20.4-20.4,71.1-44.4,151.1H368.9z"/>
	<path d="M528,249.8c0-23.6,13.3-35.6,39.6-35.6s39.6,12,39.6,35.6c0.7,9.7-2.9,19.3-9.8,26.2c-8.2,7.2-18.9,10.7-29.8,9.8
		C541.3,285.8,528,273.8,528,249.8z M604,585.8h-70.7V319.1h72.9L604,585.8z"/>
</g>
<rect class="st0" width="800" height="800"/>
</svg>
