<?xml version="1.0" encoding="utf-8"?>
<!-- Generator: Adobe Illustrator 27.4.0, SVG Export Plug-In . SVG Version: 6.00 Build 0)  -->
<svg version="1.1" id="Layer_1" xmlns="http://www.w3.org/2000/svg" xmlns:xlink="http://www.w3.org/1999/xlink" x="0px" y="0px"
	 viewBox="0 0 800 800" style="enable-background:new 0 0 800 800;" xml:space="preserve">
<style type="text/css">
	.st0{fill:none;}
</style>
<path d="M711.1,88.9v622.2H88.9V88.9H711.1 M711.1,0H88.9C39.8,0,0,39.8,0,88.9v622.2C0,760.2,39.8,800,88.9,800h622.2
	c49.1,0,88.9-39.8,88.9-88.9V88.9C800,39.8,760.2,0,711.1,0z"/>
<rect class="st0" width="800" height="800"/>
<g>
	<path d="M404.9,332c1.9,32.7-11.2,64.4-35.6,86.2c-28.7,21.6-64.2,32.2-100,29.8h-31.6v124h-74.2V222.2h111.6
		c34.4-2.4,68.5,7.4,96.4,27.6C395.1,270.4,407.4,300.9,404.9,332z M237.8,387.6h24c17.5,0.9,34.8-4,49.3-13.8
		c11.9-9.3,18.3-24,16.9-39.1c1.3-14.4-3.9-28.6-14.2-38.7c-12.9-9.3-28.6-13.7-44.4-12.4h-31.6V387.6z"/>
	<path d="M636.4,492.9c1.3,24.3-9.3,47.7-28.4,62.7c-25.5,15.9-55.3,23.4-85.3,21.3c-16.7,0.2-33.3-1.1-49.8-4
		c-13.3-2.4-26.3-6.2-38.7-11.6v-60c14.4,6.5,29.2,11.9,44.4,16c14.5,3.7,29.4,5.8,44.4,6.2c26.2,0,39.6-7.6,39.6-22.7
		c0.2-5.3-1.7-10.4-5.3-14.2c-5.2-4.9-11.2-9-17.8-12l-34.7-16c-15.7-6.1-30.7-14.2-44.4-24c-8.8-6.5-16-15-20.9-24.9
		c-4.7-11.1-7-23.1-6.7-35.1c-0.8-21.9,9.5-42.7,27.6-55.1c23.5-14.3,50.8-21.1,78.2-19.6c32.5,0,64.5,7.3,93.8,21.3l-21.8,52.4
		c-12.2-5.4-24.6-10.2-37.3-14.2c-11.5-3.5-23.5-5.3-35.6-5.3c-21.8,0-32.4,5.8-32.4,17.3c0.4,7.1,4.4,13.5,10.7,16.9
		c14.1,8.6,29,15.7,44.4,21.3c15.7,6.1,30.6,14,44.4,23.6c9,6.6,16.3,15.3,21.3,25.3C632.3,469.1,635.9,480.8,636.4,492.9z"/>
</g>
</svg>
